<svg viewBox="0 0 264.583 264.583" xmlns="http://www.w3.org/2000/svg"><path d="m76.69 164.571 19.348 37.811 61.875-37.68-56.07 21.733Z" fill="#0e280b"/><path d="m133.306 98.464-58.93 161.907" fill="none" stroke="#0e280b" stroke-width="5.580254340000001" stroke-linecap="round" stroke-linejoin="round"/><path d="M141.758 44.538s-45.477 42.962-41.69 64.44c3.787 21.479 114.87 62.785 114.87 62.785s-88.732-91.146-84.67-68.11c4.062 23.037 11.49-59.115 11.49-59.115z" fill="#8a190b"/><path d="M96.27 52.452s-6.487 55.814 8.519 68.405c15.005 12.591 115.28-23.119 115.28-23.119s-113.67-11.485-97.576 2.02c16.094 13.505-26.223-47.306-26.223-47.306z" fill="#9d1c0d"/><path d="M61.873 80.645s33.518 50.89 54.762 50.89c21.243 0 79.653-99.567 79.653-99.567s-102.438 69.697-79.653 69.697c22.784 0-54.762-21.02-54.762-21.02z" fill="#c82410"/><path d="M52.32 123.848s57.83 17.272 73.948 3.747c16.118-13.524-2.954-126.256-2.954-126.256s-33.35 118.099-16.063 103.593c17.287-14.506-54.932 18.916-54.932 18.916z" fill="#dd2811"/></svg>