<?xml version="1.0" standalone="no"?>
<!DOCTYPE svg PUBLIC "-//W3C//DTD SVG 20010904//EN"
 "http://www.w3.org/TR/2001/REC-SVG-20010904/DTD/svg10.dtd">
<svg version="1.0" xmlns="http://www.w3.org/2000/svg"
 width="700.000000pt" height="700.000000pt" viewBox="0 0 700.000000 700.000000"
 preserveAspectRatio="xMidYMid meet">
<metadata>
Created by potrace 1.14, written by Peter Selinger 2001-2017
</metadata>
<g transform="translate(0.000000,700.000000) scale(0.100000,-0.100000)"
fill="#000000" stroke="none">
<path d="M3256 6940 c-32 -80 -286 -1083 -372 -1470 -30 -135 -56 -249 -58
-255 -1 -5 -25 24 -52 65 -27 41 -55 81 -61 88 -7 7 -13 17 -13 21 0 4 -9 18
-19 30 -10 12 -43 58 -71 102 -29 44 -56 76 -61 72 -4 -4 -10 -44 -13 -88 -3
-44 -9 -127 -13 -185 -5 -58 -8 -240 -8 -406 l0 -301 -25 7 c-14 4 -81 25
-150 45 -158 47 -200 59 -450 129 -113 32 -215 61 -228 67 -21 8 -22 7 -11
-13 12 -22 175 -251 216 -303 13 -16 27 -34 31 -40 19 -26 117 -151 122 -155
21 -21 211 -252 209 -254 -2 -2 -74 -33 -159 -69 -85 -36 -247 -107 -360 -157
-113 -51 -231 -103 -263 -118 -39 -17 -54 -28 -45 -33 26 -15 528 -133 648
-153 14 -2 52 -9 85 -14 57 -10 85 -15 173 -27 20 -3 48 -8 62 -10 14 -3 57
-7 95 -11 39 -3 86 -8 105 -10 50 -5 337 -4 390 1 25 3 69 10 99 15 30 6 58
10 62 10 4 0 -10 -49 -32 -110 -99 -275 -226 -626 -236 -650 -3 -8 -7 -19 -9
-25 -1 -5 -49 -138 -107 -295 -57 -157 -106 -291 -108 -299 -3 -9 -67 41 -179
139 -96 84 -202 176 -234 204 -33 28 -69 60 -82 71 -24 22 -59 52 -88 75 -11
9 1 -23 31 -80 28 -52 131 -255 230 -450 l180 -355 -35 -90 c-19 -49 -49 -130
-67 -180 -18 -49 -134 -369 -258 -710 -124 -341 -228 -633 -231 -648 -10 -57
69 -99 117 -63 11 8 125 310 293 772 151 418 279 768 284 779 5 11 14 36 21
55 9 30 27 45 103 90 50 30 102 62 116 71 14 9 165 101 335 204 171 103 326
198 345 210 43 28 474 291 515 315 83 48 105 63 102 67 -4 3 -360 -129 -422
-157 -26 -12 -277 -109 -385 -150 -47 -17 -94 -36 -105 -40 -11 -5 -45 -19
-75 -30 -30 -11 -64 -25 -75 -29 -28 -13 -285 -111 -289 -111 -2 0 3 19 11 43
22 64 273 759 283 782 5 11 27 72 50 135 22 63 44 122 47 130 3 8 7 20 9 25 2
10 115 319 118 322 0 1 53 -28 116 -64 275 -157 871 -441 1350 -645 204 -87
749 -306 850 -342 l75 -26 -340 337 c-187 186 -412 406 -500 489 -255 240
-312 294 -333 312 -16 15 -174 157 -206 187 -12 11 -128 107 -135 112 -11 7
19 18 190 64 101 28 209 57 239 65 182 50 501 148 770 236 335 111 407 135
426 146 16 10 13 12 -21 13 -43 2 -49 2 -170 13 -137 13 -158 15 -240 21 -44
3 -96 7 -115 10 -19 2 -75 7 -125 10 -49 3 -112 8 -140 10 -27 2 -93 6 -145
10 -52 3 -124 8 -160 10 -110 8 -390 22 -493 24 l-57 1 57 78 c163 220 518
752 734 1099 64 104 224 367 247 406 12 21 16 35 10 31 -28 -17 -324 -225
-538 -378 -338 -240 -608 -441 -847 -628 -62 -48 -115 -88 -118 -88 -6 0 -3
34 10 140 3 19 7 58 10 85 4 45 7 75 20 185 3 19 7 62 10 95 2 33 7 80 10 105
3 25 7 72 10 105 l4 60 -148 -153 -149 -153 -7 73 c-4 40 -9 87 -11 103 -2 17
-6 57 -9 90 -3 33 -8 71 -10 85 -3 14 -7 51 -10 83 -3 32 -8 75 -11 95 -3 20
-7 48 -9 62 -2 14 -7 52 -10 85 -7 64 -13 105 -20 145 -2 14 -7 48 -10 75 -3
28 -7 61 -10 75 -2 14 -7 43 -10 65 -33 226 -56 381 -59 390 -2 6 -6 3 -10 -5z"/>
</g>
</svg>
